<svg xmlns="http://www.w3.org/2000/svg" version="1.0" width="440" height="402" viewBox="0 0 440 402" preserveAspectRatio="xMidYMid meet">
  <g transform="translate(0.000000,402.000000) scale(0.100000,-0.100000)" fill="red" stroke="red" stroke-width="10">
    <path d="M3737 2970 c-60 -15 -122 -51 -277 -160 -241 -169 -377 -233 -559 -264 -274 -47 -552 7 -937 182 -254 116 -459 159 -704 149 -535 -21 -922 -366 -1019 -905 -55 -303 -28 -588 74 -797 69 -142 152 -205 273 -205 119 0 196 36 473 221 301 201 360 223 594 223 183 1 223 -9 544 -130 319 -121 475 -152 700 -141 322 16 597 134 832 350 175 165 300 355 377 572 45 130 65 240 65 370 0 191 -54 332 -167 437 -91 84 -179 115 -269 93z m149 -45 c44 -18 149 -117 180 -171 65 -111 90 -290 65 -465 -37 -247 -180 -524 -376 -724 -278 -283 -666 -427 -1040 -386 -173 19 -253 41 -498 133 -319 120 -359 130 -537 135 -131 4 -155 2 -243 -21 -116 -30 -172 -60 -401 -214 -94 -63 -212 -135 -263 -160 -247 -119 -390 -34 -489 293 -24 81 -27 109 -31 283 -6 209 7 320 52 477 101 348 351 601 690 700 306 89 625 47 1023 -135 243 -110 430 -159 645 -167 315 -12 491 50 837 296 150 107 221 141 293 141 32 0 73 -7 93 -15z"/>
  </g>
</svg>